<svg width="169" height="56" viewBox="0 0 169 56" fill="none" xmlns="http://www.w3.org/2000/svg">
<mask id="path-1-outside-1_7001_519" maskUnits="userSpaceOnUse" x="0" y="10" width="162" height="43" fill="black">
<rect fill="white" y="10" width="162" height="43"/>
<path d="M15.5381 41.8404C12.852 41.8404 10.4013 41.238 8.18599 40.0333C5.97066 38.8018 4.21224 37.1019 2.91073 34.9334C1.63691 32.7382 1 30.2752 1 27.5446C1 24.8139 1.63691 22.3643 2.91073 20.1959C4.21224 18.0007 5.97066 16.3007 8.18599 15.096C10.4013 13.8645 12.852 13.2488 15.5381 13.2488C18.2519 13.2488 20.7165 13.8645 22.9318 15.096C25.1472 16.3007 26.8917 17.9873 28.1656 20.1557C29.4394 22.3242 30.0763 24.7871 30.0763 27.5446C30.0763 30.302 29.4394 32.7649 28.1656 34.9334C26.8917 37.1019 25.1472 38.8018 22.9318 40.0333C20.7165 41.238 18.2519 41.8404 15.5381 41.8404ZM15.5381 38.668C17.5596 38.668 19.3734 38.2129 20.9796 37.3026C22.6134 36.3924 23.8872 35.094 24.801 33.4074C25.7425 31.7209 26.2133 29.7666 26.2133 27.5446C26.2133 25.2958 25.7425 23.3415 24.801 21.6817C23.8872 19.9951 22.6272 18.6967 21.0211 17.7865C19.415 16.8763 17.5873 16.4212 15.5381 16.4212C13.489 16.4212 11.6613 16.8763 10.0552 17.7865C8.44907 18.6967 7.17525 19.9951 6.23373 21.6817C5.3199 23.3415 4.86299 25.2958 4.86299 27.5446C4.86299 29.7666 5.3199 31.7209 6.23373 33.4074C7.17525 35.094 8.44907 36.3924 10.0552 37.3026C11.689 38.2129 13.5166 38.668 15.5381 38.668Z"/>
<path d="M38.8462 23.6092C39.5939 22.351 40.7016 21.3069 42.1692 20.477C43.6646 19.6203 45.3953 19.192 47.3614 19.192C49.3829 19.192 51.2106 19.6605 52.8444 20.5975C54.5059 21.5344 55.8074 22.8596 56.7489 24.573C57.6904 26.2596 58.1612 28.2272 58.1612 30.476C58.1612 32.698 57.6904 34.6791 56.7489 36.4192C55.8074 38.1593 54.5059 39.5113 52.8444 40.475C51.2106 41.4388 49.3829 41.9207 47.3614 41.9207C45.423 41.9207 43.7061 41.5057 42.2108 40.6758C40.7431 39.8191 39.6216 38.7617 38.8462 37.5034V52H35.0663V19.5534H38.8462V23.6092ZM54.2982 30.476C54.2982 28.8162 53.952 27.3706 53.2597 26.1391C52.5675 24.9076 51.6259 23.9706 50.4352 23.3281C49.2721 22.6856 47.9845 22.3643 46.5722 22.3643C45.1876 22.3643 43.8999 22.699 42.7092 23.3683C41.5462 24.0108 40.6046 24.9611 39.8847 26.2194C39.1924 27.4509 38.8462 28.8831 38.8462 30.5162C38.8462 32.176 39.1924 33.635 39.8847 34.8932C40.6046 36.1247 41.5462 37.0751 42.7092 37.7444C43.8999 38.3869 45.1876 38.7081 46.5722 38.7081C47.9845 38.7081 49.2721 38.3869 50.4352 37.7444C51.6259 37.0751 52.5675 36.1247 53.2597 34.8932C53.952 33.635 54.2982 32.1626 54.2982 30.476Z"/>
<path d="M67.7473 22.5651V35.5357C67.7473 36.6066 67.9826 37.3696 68.4534 37.8247C68.9241 38.253 69.7411 38.4672 70.9041 38.4672H73.6871V41.5593H70.2811C68.1765 41.5593 66.598 41.0908 65.5458 40.1538C64.4935 39.2168 63.9673 37.6774 63.9673 35.5357V22.5651H61.0182V19.5534H63.9673V14.0118H67.7473V19.5534H73.6871V22.5651H67.7473Z"/>
<path d="M93.9682 41.5593L82.0469 28.7894V41.5593H78.267V13.57H82.0469V26.5406L94.0097 13.57H98.7865L85.6606 27.5847L98.9111 41.5593H93.9682Z"/>
<path d="M105.085 15.9794C104.365 15.9794 103.756 15.7385 103.257 15.2566C102.759 14.7747 102.51 14.1858 102.51 13.4897C102.51 12.7937 102.759 12.2047 103.257 11.7228C103.756 11.2409 104.365 11 105.085 11C105.777 11 106.359 11.2409 106.83 11.7228C107.328 12.2047 107.577 12.7937 107.577 13.4897C107.577 14.1858 107.328 14.7747 106.83 15.2566C106.359 15.7385 105.777 15.9794 105.085 15.9794ZM106.913 19.5534V41.5593H103.133V19.5534H106.913Z"/>
<path d="M117.965 22.5651V35.5357C117.965 36.6066 118.201 37.3696 118.672 37.8247C119.142 38.253 119.959 38.4672 121.122 38.4672H123.905V41.5593H120.499C118.395 41.5593 116.816 41.0908 115.764 40.1538C114.712 39.2168 114.186 37.6774 114.186 35.5357V22.5651H111.236V19.5534H114.186V14.0118H117.965V19.5534H123.905V22.5651H117.965Z"/>
<path d="M127.073 30.476C127.073 28.2272 127.544 26.2596 128.485 24.573C129.427 22.8596 130.714 21.5344 132.348 20.5975C134.01 19.6605 135.851 19.192 137.873 19.192C139.866 19.192 141.597 19.6069 143.065 20.4368C144.533 21.2667 145.626 22.3108 146.346 23.5691V19.5534H150.168V41.5593H146.346V37.4633C145.599 38.7483 144.477 39.8191 142.982 40.6758C141.514 41.5057 139.797 41.9207 137.831 41.9207C135.81 41.9207 133.982 41.4388 132.348 40.475C130.714 39.5113 129.427 38.1593 128.485 36.4192C127.544 34.6791 127.073 32.698 127.073 30.476ZM146.346 30.5162C146.346 28.8563 146 27.4107 145.308 26.1792C144.616 24.9478 143.674 24.0108 142.483 23.3683C141.32 22.699 140.033 22.3643 138.62 22.3643C137.208 22.3643 135.92 22.6856 134.757 23.3281C133.594 23.9706 132.667 24.9076 131.974 26.1391C131.282 27.3706 130.936 28.8162 130.936 30.476C130.936 32.1626 131.282 33.635 131.974 34.8932C132.667 36.1247 133.594 37.0751 134.757 37.7444C135.92 38.3869 137.208 38.7081 138.62 38.7081C140.033 38.7081 141.32 38.3869 142.483 37.7444C143.674 37.0751 144.616 36.1247 145.308 34.8932C146 33.635 146.346 32.176 146.346 30.5162Z"/>
<path d="M158.508 15.9794C157.788 15.9794 157.179 15.7385 156.68 15.2566C156.182 14.7747 155.932 14.1858 155.932 13.4897C155.932 12.7937 156.182 12.2047 156.68 11.7228C157.179 11.2409 157.788 11 158.508 11C159.2 11 159.782 11.2409 160.252 11.7228C160.751 12.2047 161 12.7937 161 13.4897C161 14.1858 160.751 14.7747 160.252 15.2566C159.782 15.7385 159.2 15.9794 158.508 15.9794ZM160.335 19.5534V41.5593H156.555V19.5534H160.335Z"/>
</mask>
<path d="M15.5381 41.8404C12.852 41.8404 10.4013 41.238 8.18599 40.0333C5.97066 38.8018 4.21224 37.1019 2.91073 34.9334C1.63691 32.7382 1 30.2752 1 27.5446C1 24.8139 1.63691 22.3643 2.91073 20.1959C4.21224 18.0007 5.97066 16.3007 8.18599 15.096C10.4013 13.8645 12.852 13.2488 15.5381 13.2488C18.2519 13.2488 20.7165 13.8645 22.9318 15.096C25.1472 16.3007 26.8917 17.9873 28.1656 20.1557C29.4394 22.3242 30.0763 24.7871 30.0763 27.5446C30.0763 30.302 29.4394 32.7649 28.1656 34.9334C26.8917 37.1019 25.1472 38.8018 22.9318 40.0333C20.7165 41.238 18.2519 41.8404 15.5381 41.8404ZM15.5381 38.668C17.5596 38.668 19.3734 38.2129 20.9796 37.3026C22.6134 36.3924 23.8872 35.094 24.801 33.4074C25.7425 31.7209 26.2133 29.7666 26.2133 27.5446C26.2133 25.2958 25.7425 23.3415 24.801 21.6817C23.8872 19.9951 22.6272 18.6967 21.0211 17.7865C19.415 16.8763 17.5873 16.4212 15.5381 16.4212C13.489 16.4212 11.6613 16.8763 10.0552 17.7865C8.44907 18.6967 7.17525 19.9951 6.23373 21.6817C5.3199 23.3415 4.86299 25.2958 4.86299 27.5446C4.86299 29.7666 5.3199 31.7209 6.23373 33.4074C7.17525 35.094 8.44907 36.3924 10.0552 37.3026C11.689 38.2129 13.5166 38.668 15.5381 38.668Z" fill="#333333"/>
<path d="M38.8462 23.6092C39.5939 22.351 40.7016 21.3069 42.1692 20.477C43.6646 19.6203 45.3953 19.192 47.3614 19.192C49.3829 19.192 51.2106 19.6605 52.8444 20.5975C54.5059 21.5344 55.8074 22.8596 56.7489 24.573C57.6904 26.2596 58.1612 28.2272 58.1612 30.476C58.1612 32.698 57.6904 34.6791 56.7489 36.4192C55.8074 38.1593 54.5059 39.5113 52.8444 40.475C51.2106 41.4388 49.3829 41.9207 47.3614 41.9207C45.423 41.9207 43.7061 41.5057 42.2108 40.6758C40.7431 39.8191 39.6216 38.7617 38.8462 37.5034V52H35.0663V19.5534H38.8462V23.6092ZM54.2982 30.476C54.2982 28.8162 53.952 27.3706 53.2597 26.1391C52.5675 24.9076 51.6259 23.9706 50.4352 23.3281C49.2721 22.6856 47.9845 22.3643 46.5722 22.3643C45.1876 22.3643 43.8999 22.699 42.7092 23.3683C41.5462 24.0108 40.6046 24.9611 39.8847 26.2194C39.1924 27.4509 38.8462 28.8831 38.8462 30.5162C38.8462 32.176 39.1924 33.635 39.8847 34.8932C40.6046 36.1247 41.5462 37.0751 42.7092 37.7444C43.8999 38.3869 45.1876 38.7081 46.5722 38.7081C47.9845 38.7081 49.2721 38.3869 50.4352 37.7444C51.6259 37.0751 52.5675 36.1247 53.2597 34.8932C53.952 33.635 54.2982 32.1626 54.2982 30.476Z" fill="#333333"/>
<path d="M67.7473 22.5651V35.5357C67.7473 36.6066 67.9826 37.3696 68.4534 37.8247C68.9241 38.253 69.7411 38.4672 70.9041 38.4672H73.6871V41.5593H70.2811C68.1765 41.5593 66.598 41.0908 65.5458 40.1538C64.4935 39.2168 63.9673 37.6774 63.9673 35.5357V22.5651H61.0182V19.5534H63.9673V14.0118H67.7473V19.5534H73.6871V22.5651H67.7473Z" fill="#333333"/>
<path d="M93.9682 41.5593L82.0469 28.7894V41.5593H78.267V13.57H82.0469V26.5406L94.0097 13.57H98.7865L85.6606 27.5847L98.9111 41.5593H93.9682Z" fill="#333333"/>
<path d="M105.085 15.9794C104.365 15.9794 103.756 15.7385 103.257 15.2566C102.759 14.7747 102.51 14.1858 102.51 13.4897C102.51 12.7937 102.759 12.2047 103.257 11.7228C103.756 11.2409 104.365 11 105.085 11C105.777 11 106.359 11.2409 106.83 11.7228C107.328 12.2047 107.577 12.7937 107.577 13.4897C107.577 14.1858 107.328 14.7747 106.83 15.2566C106.359 15.7385 105.777 15.9794 105.085 15.9794ZM106.913 19.5534V41.5593H103.133V19.5534H106.913Z" fill="#333333"/>
<path d="M117.965 22.5651V35.5357C117.965 36.6066 118.201 37.3696 118.672 37.8247C119.142 38.253 119.959 38.4672 121.122 38.4672H123.905V41.5593H120.499C118.395 41.5593 116.816 41.0908 115.764 40.1538C114.712 39.2168 114.186 37.6774 114.186 35.5357V22.5651H111.236V19.5534H114.186V14.0118H117.965V19.5534H123.905V22.5651H117.965Z" fill="#333333"/>
<path d="M127.073 30.476C127.073 28.2272 127.544 26.2596 128.485 24.573C129.427 22.8596 130.714 21.5344 132.348 20.5975C134.01 19.6605 135.851 19.192 137.873 19.192C139.866 19.192 141.597 19.6069 143.065 20.4368C144.533 21.2667 145.626 22.3108 146.346 23.5691V19.5534H150.168V41.5593H146.346V37.4633C145.599 38.7483 144.477 39.8191 142.982 40.6758C141.514 41.5057 139.797 41.9207 137.831 41.9207C135.81 41.9207 133.982 41.4388 132.348 40.475C130.714 39.5113 129.427 38.1593 128.485 36.4192C127.544 34.6791 127.073 32.698 127.073 30.476ZM146.346 30.5162C146.346 28.8563 146 27.4107 145.308 26.1792C144.616 24.9478 143.674 24.0108 142.483 23.3683C141.32 22.699 140.033 22.3643 138.62 22.3643C137.208 22.3643 135.92 22.6856 134.757 23.3281C133.594 23.9706 132.667 24.9076 131.974 26.1391C131.282 27.3706 130.936 28.8162 130.936 30.476C130.936 32.1626 131.282 33.635 131.974 34.8932C132.667 36.1247 133.594 37.0751 134.757 37.7444C135.92 38.3869 137.208 38.7081 138.62 38.7081C140.033 38.7081 141.32 38.3869 142.483 37.7444C143.674 37.0751 144.616 36.1247 145.308 34.8932C146 33.635 146.346 32.176 146.346 30.5162Z" fill="#333333"/>
<path d="M158.508 15.9794C157.788 15.9794 157.179 15.7385 156.68 15.2566C156.182 14.7747 155.932 14.1858 155.932 13.4897C155.932 12.7937 156.182 12.2047 156.68 11.7228C157.179 11.2409 157.788 11 158.508 11C159.2 11 159.782 11.2409 160.252 11.7228C160.751 12.2047 161 12.7937 161 13.4897C161 14.1858 160.751 14.7747 160.252 15.2566C159.782 15.7385 159.2 15.9794 158.508 15.9794ZM160.335 19.5534V41.5593H156.555V19.5534H160.335Z" fill="#333333"/>
<path d="M15.5381 41.8404C12.852 41.8404 10.4013 41.238 8.18599 40.0333C5.97066 38.8018 4.21224 37.1019 2.91073 34.9334C1.63691 32.7382 1 30.2752 1 27.5446C1 24.8139 1.63691 22.3643 2.91073 20.1959C4.21224 18.0007 5.97066 16.3007 8.18599 15.096C10.4013 13.8645 12.852 13.2488 15.5381 13.2488C18.2519 13.2488 20.7165 13.8645 22.9318 15.096C25.1472 16.3007 26.8917 17.9873 28.1656 20.1557C29.4394 22.3242 30.0763 24.7871 30.0763 27.5446C30.0763 30.302 29.4394 32.7649 28.1656 34.9334C26.8917 37.1019 25.1472 38.8018 22.9318 40.0333C20.7165 41.238 18.2519 41.8404 15.5381 41.8404ZM15.5381 38.668C17.5596 38.668 19.3734 38.2129 20.9796 37.3026C22.6134 36.3924 23.8872 35.094 24.801 33.4074C25.7425 31.7209 26.2133 29.7666 26.2133 27.5446C26.2133 25.2958 25.7425 23.3415 24.801 21.6817C23.8872 19.9951 22.6272 18.6967 21.0211 17.7865C19.415 16.8763 17.5873 16.4212 15.5381 16.4212C13.489 16.4212 11.6613 16.8763 10.0552 17.7865C8.44907 18.6967 7.17525 19.9951 6.23373 21.6817C5.3199 23.3415 4.86299 25.2958 4.86299 27.5446C4.86299 29.7666 5.3199 31.7209 6.23373 33.4074C7.17525 35.094 8.44907 36.3924 10.0552 37.3026C11.689 38.2129 13.5166 38.668 15.5381 38.668Z" stroke="#333333" stroke-width="2" mask="url(#path-1-outside-1_7001_519)"/>
<path d="M38.8462 23.6092C39.5939 22.351 40.7016 21.3069 42.1692 20.477C43.6646 19.6203 45.3953 19.192 47.3614 19.192C49.3829 19.192 51.2106 19.6605 52.8444 20.5975C54.5059 21.5344 55.8074 22.8596 56.7489 24.573C57.6904 26.2596 58.1612 28.2272 58.1612 30.476C58.1612 32.698 57.6904 34.6791 56.7489 36.4192C55.8074 38.1593 54.5059 39.5113 52.8444 40.475C51.2106 41.4388 49.3829 41.9207 47.3614 41.9207C45.423 41.9207 43.7061 41.5057 42.2108 40.6758C40.7431 39.8191 39.6216 38.7617 38.8462 37.5034V52H35.0663V19.5534H38.8462V23.6092ZM54.2982 30.476C54.2982 28.8162 53.952 27.3706 53.2597 26.1391C52.5675 24.9076 51.6259 23.9706 50.4352 23.3281C49.2721 22.6856 47.9845 22.3643 46.5722 22.3643C45.1876 22.3643 43.8999 22.699 42.7092 23.3683C41.5462 24.0108 40.6046 24.9611 39.8847 26.2194C39.1924 27.4509 38.8462 28.8831 38.8462 30.5162C38.8462 32.176 39.1924 33.635 39.8847 34.8932C40.6046 36.1247 41.5462 37.0751 42.7092 37.7444C43.8999 38.3869 45.1876 38.7081 46.5722 38.7081C47.9845 38.7081 49.2721 38.3869 50.4352 37.7444C51.6259 37.0751 52.5675 36.1247 53.2597 34.8932C53.952 33.635 54.2982 32.1626 54.2982 30.476Z" stroke="#333333" stroke-width="2" mask="url(#path-1-outside-1_7001_519)"/>
<path d="M67.7473 22.5651V35.5357C67.7473 36.6066 67.9826 37.3696 68.4534 37.8247C68.9241 38.253 69.7411 38.4672 70.9041 38.4672H73.6871V41.5593H70.2811C68.1765 41.5593 66.598 41.0908 65.5458 40.1538C64.4935 39.2168 63.9673 37.6774 63.9673 35.5357V22.5651H61.0182V19.5534H63.9673V14.0118H67.7473V19.5534H73.6871V22.5651H67.7473Z" stroke="#333333" stroke-width="2" mask="url(#path-1-outside-1_7001_519)"/>
<path d="M93.9682 41.5593L82.0469 28.7894V41.5593H78.267V13.57H82.0469V26.5406L94.0097 13.57H98.7865L85.6606 27.5847L98.9111 41.5593H93.9682Z" stroke="#333333" stroke-width="2" mask="url(#path-1-outside-1_7001_519)"/>
<path d="M105.085 15.9794C104.365 15.9794 103.756 15.7385 103.257 15.2566C102.759 14.7747 102.51 14.1858 102.51 13.4897C102.51 12.7937 102.759 12.2047 103.257 11.7228C103.756 11.2409 104.365 11 105.085 11C105.777 11 106.359 11.2409 106.83 11.7228C107.328 12.2047 107.577 12.7937 107.577 13.4897C107.577 14.1858 107.328 14.7747 106.83 15.2566C106.359 15.7385 105.777 15.9794 105.085 15.9794ZM106.913 19.5534V41.5593H103.133V19.5534H106.913Z" stroke="#333333" stroke-width="2" mask="url(#path-1-outside-1_7001_519)"/>
<path d="M117.965 22.5651V35.5357C117.965 36.6066 118.201 37.3696 118.672 37.8247C119.142 38.253 119.959 38.4672 121.122 38.4672H123.905V41.5593H120.499C118.395 41.5593 116.816 41.0908 115.764 40.1538C114.712 39.2168 114.186 37.6774 114.186 35.5357V22.5651H111.236V19.5534H114.186V14.0118H117.965V19.5534H123.905V22.5651H117.965Z" stroke="#333333" stroke-width="2" mask="url(#path-1-outside-1_7001_519)"/>
<path d="M127.073 30.476C127.073 28.2272 127.544 26.2596 128.485 24.573C129.427 22.8596 130.714 21.5344 132.348 20.5975C134.01 19.6605 135.851 19.192 137.873 19.192C139.866 19.192 141.597 19.6069 143.065 20.4368C144.533 21.2667 145.626 22.3108 146.346 23.5691V19.5534H150.168V41.5593H146.346V37.4633C145.599 38.7483 144.477 39.8191 142.982 40.6758C141.514 41.5057 139.797 41.9207 137.831 41.9207C135.81 41.9207 133.982 41.4388 132.348 40.475C130.714 39.5113 129.427 38.1593 128.485 36.4192C127.544 34.6791 127.073 32.698 127.073 30.476ZM146.346 30.5162C146.346 28.8563 146 27.4107 145.308 26.1792C144.616 24.9478 143.674 24.0108 142.483 23.3683C141.32 22.699 140.033 22.3643 138.62 22.3643C137.208 22.3643 135.92 22.6856 134.757 23.3281C133.594 23.9706 132.667 24.9076 131.974 26.1391C131.282 27.3706 130.936 28.8162 130.936 30.476C130.936 32.1626 131.282 33.635 131.974 34.8932C132.667 36.1247 133.594 37.0751 134.757 37.7444C135.92 38.3869 137.208 38.7081 138.62 38.7081C140.033 38.7081 141.32 38.3869 142.483 37.7444C143.674 37.0751 144.616 36.1247 145.308 34.8932C146 33.635 146.346 32.176 146.346 30.5162Z" stroke="#333333" stroke-width="2" mask="url(#path-1-outside-1_7001_519)"/>
<path d="M158.508 15.9794C157.788 15.9794 157.179 15.7385 156.68 15.2566C156.182 14.7747 155.932 14.1858 155.932 13.4897C155.932 12.7937 156.182 12.2047 156.68 11.7228C157.179 11.2409 157.788 11 158.508 11C159.2 11 159.782 11.2409 160.252 11.7228C160.751 12.2047 161 12.7937 161 13.4897C161 14.1858 160.751 14.7747 160.252 15.2566C159.782 15.7385 159.2 15.9794 158.508 15.9794ZM160.335 19.5534V41.5593H156.555V19.5534H160.335Z" stroke="#333333" stroke-width="2" mask="url(#path-1-outside-1_7001_519)"/>
</svg>
